<?xml version="1.0" encoding="UTF-8" standalone="no"?><!DOCTYPE svg PUBLIC "-//W3C//DTD SVG 1.1//EN" "http://www.w3.org/Graphics/SVG/1.1/DTD/svg11.dtd"><svg width="100%" height="100%" viewBox="0 0 1889 314" version="1.1" xmlns="http://www.w3.org/2000/svg" xmlns:xlink="http://www.w3.org/1999/xlink" xml:space="preserve" xmlns:serif="http://www.serif.com/" style="fill-rule:evenodd;clip-rule:evenodd;stroke-linecap:round;stroke-linejoin:round;stroke-miterlimit:1.5;"><path d="M957.335,107.586c0,-1.291 -1.047,-2.338 -2.337,-2.338l-13.308,-0c-1.29,-0 -2.338,1.047 -2.338,2.338l0,14.08c0,1.291 1.048,2.338 2.338,2.338l13.308,0c1.29,0 2.337,-1.047 2.337,-2.338l0,-14.08Z" style="fill:#db3960;"/><path d="M1048.11,107.586c0,-1.291 -1.047,-2.338 -2.338,-2.338l-13.307,-0c-1.291,-0 -2.338,1.047 -2.338,2.338l-0,14.08c-0,1.291 1.047,2.338 2.338,2.338l13.307,0c1.291,0 2.338,-1.047 2.338,-2.338l0,-14.08Z" style="fill:#db3960;"/><path d="M1048.11,192.913c0,-1.291 -1.047,-2.338 -2.338,-2.338l-13.307,-0c-1.291,-0 -2.338,1.047 -2.338,2.338l-0,14.08c-0,1.291 1.047,2.338 2.338,2.338l13.307,0c1.291,0 2.338,-1.047 2.338,-2.338l0,-14.08Z" style="fill:#db3960;"/><path d="M957.335,194.97c0,-1.291 -1.047,-2.338 -2.337,-2.338l-13.308,-0c-1.29,-0 -2.338,1.047 -2.338,2.338l0,14.08c0,1.291 1.048,2.338 2.338,2.338l13.308,0c1.29,0 2.337,-1.047 2.337,-2.338l0,-14.08Z" style="fill:#db3960;"/><path d="M906.182,58.134l-18.056,0l-0,14.459" style="fill:none;stroke:#db3960;stroke-width:12.5px;"/><path d="M908.068,252.438l-18.056,0l-0,-15.459" style="fill:none;stroke:#db3960;stroke-width:12.5px;"/><path d="M1080.41,253.427l18.056,-0l-0,-15.459" style="fill:none;stroke:#db3960;stroke-width:12.5px;"/><path d="M1079.48,56.859l17.056,-0l-0,15.459" style="fill:none;stroke:#db3960;stroke-width:12.5px;"/><g><path d="M179.925,191.921c-0.854,0.106 -1.722,0.183 -2.601,0.16c-13.843,-0.37 -21.094,-9.461 -21.094,-21.113c-0,-11.653 9.224,-20.043 21.094,-21.113c0.888,-0.08 1.77,0.055 2.634,0.163l42.021,0l-0,42.022l-42.054,-0l-0,-0.119Z" style="fill:none;stroke:#db3960;stroke-width:8.93px;stroke-linecap:square;"/><circle cx="177.33" cy="170.791" r="9" style="fill:none;stroke:#db3960;stroke-width:8.93px;stroke-linecap:square;"/><path d="M183.871,76.076c-0,-0 24.344,5.669 32.389,25.889" style="fill:none;stroke:#db3960;stroke-width:8.93px;stroke-linecap:square;"/><path d="M89.886,71.975c-0,0 -66.782,-2.758 -76.626,27.908" style="fill:none;stroke:#db3960;stroke-width:8.93px;stroke-linecap:square;"/><path d="M168.46,62.797l-64.291,36.644" style="fill:none;stroke:#db3960;stroke-width:8.93px;stroke-linecap:square;"/><path d="M223.742,119.716c0,-9.59 -7.786,-17.377 -17.377,-17.377l-184.522,0c-9.591,0 -17.378,7.787 -17.378,17.377l0,110.727c0,9.591 7.787,17.378 17.378,17.378l184.522,-0c9.591,-0 17.377,-7.787 17.377,-17.378l0,-110.727Z" style="fill:none;stroke:#db3960;stroke-width:8.93px;stroke-linecap:square;"/><path d="M44.266,99.139l94.316,-50.276c0,0 19.481,-10.596 33.578,13.181l19.769,33.935" style="fill:none;stroke:#db3960;stroke-width:8.93px;stroke-linecap:square;"/></g><g><path d="M567.394,93.516c-0,-12.498 -10.147,-22.644 -22.645,-22.644l-191.941,-0c-12.498,-0 -22.645,10.146 -22.645,22.644l0,131.66c0,12.498 10.147,22.645 22.645,22.645l191.941,-0c12.498,-0 22.645,-10.147 22.645,-22.645l-0,-131.66Z" style="fill:none;stroke:#db3960;stroke-width:8.93px;"/><path d="M330.163,108.027l237.231,0" style="fill:none;stroke:#db3960;stroke-width:8.93px;stroke-linecap:square;"/><path d="M330.163,138.539l237.231,-0" style="fill:none;stroke:#db3960;stroke-width:8.93px;stroke-linecap:square;"/></g><g><path d="M785.88,60.033c-0,-6.689 -5.43,-12.119 -12.118,-12.119l-87.829,0c-6.688,0 -12.118,5.43 -12.118,12.119l-0,175.669c-0,6.689 5.43,12.119 12.118,12.119l87.829,-0c6.688,-0 12.118,-5.43 12.118,-12.119l-0,-175.669Z" style="fill:none;stroke:#db3960;stroke-width:8.93px;stroke-linecap:square;"/><path d="M673.815,72.766l112.065,-0" style="fill:none;stroke:#db3960;stroke-width:8.93px;stroke-linecap:square;"/><path d="M675.382,213.477l108.526,-0" style="fill:none;stroke:#db3960;stroke-width:8.93px;stroke-linecap:square;"/><circle cx="732.019" cy="229.428" r="5.891" style="fill:none;stroke:#db3960;stroke-width:2.98px;stroke-linecap:square;"/><path d="M711.726,59.746l34.956,0" style="fill:none;stroke:#db3960;stroke-width:2.98px;stroke-linecap:square;"/><circle cx="773.04" cy="59.705" r="3.235" style="fill:#db3960;"/></g><g><ellipse cx="1605.58" cy="87.812" rx="16.855" ry="16.609" style="fill:none;stroke:#db3960;stroke-width:6.67px;stroke-linecap:square;"/><path d="M1594.23,100.088l-38.737,38.241" style="fill:none;stroke:#db3960;stroke-width:6.67px;stroke-linecap:square;"/><path d="M1545.05,178.821l9.058,32.158" style="fill:none;stroke:#db3960;stroke-width:6.67px;stroke-linecap:square;"/><path d="M1558.91,169.505l51.055,34.128" style="fill:none;stroke:#db3960;stroke-width:6.67px;stroke-linecap:square;"/><path d="M1489.52,121.201l30.627,21.103" style="fill:none;stroke:#db3960;stroke-width:6.7px;stroke-linecap:square;"/><path d="M1523.27,175.121l-22.623,24.517" style="fill:none;stroke:#db3960;stroke-width:6.67px;stroke-linecap:square;"/><ellipse cx="1480.98" cy="113.552" rx="11.492" ry="11.324" style="fill:#db3960;stroke:#db3960;stroke-width:6.67px;stroke-linecap:square;"/><ellipse cx="1491.36" cy="209.177" rx="10.019" ry="9.873" style="fill:#db3960;stroke:#db3960;stroke-width:6.67px;stroke-linecap:square;"/><ellipse cx="1621.58" cy="211.816" rx="9.648" ry="9.507" style="fill:#db3960;stroke:#db3960;stroke-width:6.67px;stroke-linecap:square;"/><ellipse cx="1538.4" cy="154.648" rx="22.16" ry="21.837" style="fill:none;stroke:#db3960;stroke-width:6.67px;stroke-linecap:square;"/><ellipse cx="1557.03" cy="229.489" rx="18.604" ry="18.332" style="fill:none;stroke:#db3960;stroke-width:6.67px;stroke-linecap:square;"/></g><circle cx="1793.68" cy="164.082" r="24.28" style="fill:#db3960;"/><circle cx="1855.07" cy="164.082" r="24.28" style="fill:#db3960;"/><circle cx="1732.3" cy="164.082" r="24.28" style="fill:#db3960;"/><g><path d="M1342.89,120.422c-0,-0 23.962,10.306 19.661,34.706c-0,0 -2.418,32.733 -35.665,37.123l-42.926,1.992l-8.698,52.099l-38.12,1.479l3.791,-24.448" style="fill:none;stroke:#db3960;stroke-width:8.93px;stroke-linecap:square;"/><path d="M1293.04,58.269c26.88,0.171 48.65,22.046 48.65,48.966c0,27.026 -21.941,48.967 -48.967,48.967c-2.332,0 -4.626,-0.163 -6.872,-0.479l-33.161,-0.66l-11.552,67.807l-38.187,1.257l26.055,-165.859l63.717,0l0.317,0.001Z" style="fill:none;stroke:#db3960;stroke-width:8.93px;stroke-linecap:square;"/></g><path d="M908.143,98.317c-0.177,-2.068 -0.101,-6.405 2.65,-11.059c2.375,-4.017 7.143,-9.516 19.043,-11.241l0.892,-0.129l55.345,0l0,74.293l-77.93,0l-0,-51.864Zm23.485,-9.929l41.945,0l0,49.293l-52.93,0l-0,-40.159c-0,0 -1.233,-7.364 10.985,-9.134Z" style="fill:#db3960;"/><path d="M1080.38,98.317l-0,51.864l-77.931,0l0,-74.293l55.346,0l0.891,0.129c11.901,1.725 16.668,7.224 19.043,11.241c2.751,4.654 2.827,8.991 2.651,11.059Zm-23.486,-9.929l-41.945,0l0,49.293l52.931,0l-0,-40.159c-0,0 1.232,-7.364 -10.986,-9.134Z" style="fill:#db3960;"/><path d="M1014.94,224.681l16.945,0l0,12.5l-29.445,0l0,-58.055l12.5,0l0,45.555Zm8.762,-49.293l0,-12.5l56.669,0l-0,43.332l-12.5,-0l-0,-30.832l-44.169,0Z" style="fill:#db3960;"/><path d="M908.143,215.06l-0,-51.864l77.93,0l0,74.293l-55.345,-0l-0.892,-0.129c-11.9,-1.724 -16.668,-7.224 -19.043,-11.241c-2.751,-4.654 -2.827,-8.991 -2.65,-11.059Zm23.485,9.929l41.945,-0l0,-49.293l-52.93,0l-0,40.159c-0,-0 -1.233,7.364 10.985,9.134Z" style="fill:#db3960;"/></svg>